<?xml version="1.0" encoding="UTF-8" standalone="no"?>
<svg
   xmlns:dc="http://purl.org/dc/elements/1.1/"
   xmlns:cc="http://creativecommons.org/ns#"
   xmlns:rdf="http://www.w3.org/1999/02/22-rdf-syntax-ns#"
   xmlns:svg="http://www.w3.org/2000/svg"
   xmlns="http://www.w3.org/2000/svg"
   id="svg4524"
   version="1.1"
   viewBox="0 0 105.83333 21.166667"
   height="80"
   width="400">
  <defs
     id="defs4518" />
  <metadata
     id="metadata4521">
    <rdf:RDF>
      <cc:Work
         rdf:about="">
        <dc:format>image/svg+xml</dc:format>
        <dc:type
           rdf:resource="http://purl.org/dc/dcmitype/StillImage" />
        <dc:title></dc:title>
      </cc:Work>
    </rdf:RDF>
  </metadata>
  <g
     transform="translate(0,-275.83332)"
     id="layer1">
    <g
       id="flowRoot5069"
       style="font-style:normal;font-weight:normal;font-size:40px;line-height:1.25;font-family:sans-serif;letter-spacing:0px;word-spacing:0px;fill:#000000;fill-opacity:1;stroke:none"
       transform="matrix(0.26458333,0,0,0.26458333,-0.62197005,274.66743)"
       aria-label="usableprivacynet">
      <path
         id="path5254"
         style="font-style:normal;font-variant:normal;font-weight:bold;font-stretch:normal;font-size:42.66666794px;font-family:Montserrat;-inkscape-font-specification:'Montserrat Bold'"
         d="m 36.804756,33.931866 v 22.954667 h -6.314667 v -2.730667 q -1.322667,1.493334 -3.157333,2.304 -1.834667,0.768 -3.968,0.768 -4.522667,0 -7.168001,-2.602666 -2.645333,-2.602667 -2.645333,-7.722667 V 33.931866 h 6.656 v 11.989333 q 0,5.546667 4.650667,5.546667 2.389333,0 3.84,-1.536 1.450667,-1.578667 1.450667,-4.650667 V 33.931866 Z" />
      <path
         id="path5256"
         style="font-style:normal;font-variant:normal;font-weight:bold;font-stretch:normal;font-size:42.66666794px;font-family:Montserrat;-inkscape-font-specification:'Montserrat Bold'"
         d="m 50.735423,57.227866 q -2.858667,0 -5.589334,-0.682666 -2.730666,-0.725334 -4.352,-1.792 l 2.218667,-4.778667 q 1.536,0.981333 3.712,1.621333 2.176,0.597334 4.266667,0.597334 4.224,0 4.224,-2.090667 0,-0.981334 -1.152,-1.408 -1.152,-0.426667 -3.541334,-0.725334 -2.816,-0.426666 -4.650666,-0.981333 -1.834667,-0.554667 -3.2,-1.962667 -1.322667,-1.408 -1.322667,-4.010666 0,-2.176001 1.237333,-3.840001 1.28,-1.706666 3.669334,-2.645333 2.432,-0.938667 5.717333,-0.938667 2.432,0 4.821334,0.554667 2.432,0.512 4.010666,1.450667 l -2.218666,4.736 q -3.029334,-1.706667 -6.613334,-1.706667 -2.133333,0 -3.2,0.597333 -1.066667,0.597334 -1.066667,1.536001 0,1.066666 1.152,1.493333 1.152,0.426667 3.669334,0.810667 2.816,0.469333 4.608,1.024 1.792,0.512 3.114667,1.92 1.322666,1.408 1.322666,3.925333 0,2.133334 -1.28,3.797334 -1.28,1.664 -3.754666,2.602666 -2.432,0.896 -5.802667,0.896 z" />
      <path
         id="path5258"
         style="font-style:normal;font-variant:normal;font-weight:bold;font-stretch:normal;font-size:42.66666794px;font-family:Montserrat;-inkscape-font-specification:'Montserrat Bold'"
         d="m 74.938089,33.590532 q 5.333333,0 8.192,2.56 2.858667,2.517334 2.858667,7.637334 v 13.098667 h -6.229334 v -2.858667 q -1.877333,3.2 -6.997333,3.2 -2.645334,0 -4.608,-0.896 -1.92,-0.896 -2.944,-2.474666 -1.024,-1.578667 -1.024,-3.584001 0,-3.2 2.389333,-5.034666 2.432,-1.834667 7.466667,-1.834667 h 5.290667 q 0,-2.176 -1.322667,-3.328 -1.322667,-1.194667 -3.968,-1.194667 -1.834667,0 -3.626667,0.597333 -1.749333,0.554667 -2.986667,1.536001 l -2.389333,-4.650667 q 1.877333,-1.322667 4.48,-2.048 2.645333,-0.725334 5.418667,-0.725334 z m -0.512,19.157334 q 1.706667,0 3.029333,-0.768 1.322667,-0.810667 1.877334,-2.346667 v -2.346666 h -4.565334 q -4.096,0 -4.096,2.688 0,1.28 0.981333,2.048 1.024001,0.725333 2.773334,0.725333 z" />
      <path
         id="path5260"
         style="font-style:normal;font-variant:normal;font-weight:bold;font-stretch:normal;font-size:42.66666794px;font-family:Montserrat;-inkscape-font-specification:'Montserrat Bold'"
         d="m 105.58076,33.590532 q 3.2,0 5.80267,1.493334 2.64533,1.450666 4.13866,4.138666 1.49334,2.645334 1.49334,6.186667 0,3.541334 -1.49334,6.229334 -1.49333,2.645333 -4.13866,4.138667 -2.60267,1.450666 -5.80267,1.450666 -4.736,0 -7.210669,-2.986666 v 2.645333 H 92.012758 V 25.227865 h 6.656 v 11.136001 q 2.517332,-2.773334 6.912002,-2.773334 z m -1.152,18.176001 q 2.56,0 4.18133,-1.706667 1.664,-1.749333 1.664,-4.650667 0,-2.901333 -1.664,-4.608 -1.62133,-1.749333 -4.18133,-1.749333 -2.56,0 -4.224,1.749333 -1.621335,1.706667 -1.621335,4.608 0,2.901334 1.621335,4.650667 1.664,1.706667 4.224,1.706667 z" />
      <path
         id="path5262"
         style="font-style:normal;font-variant:normal;font-weight:bold;font-stretch:normal;font-size:42.66666794px;font-family:Montserrat;-inkscape-font-specification:'Montserrat Bold'"
         d="m 121.42942,25.227865 h 6.656 v 31.658668 h -6.656 z" />
      <path
         id="path5264"
         style="font-style:normal;font-variant:normal;font-weight:bold;font-stretch:normal;font-size:42.66666794px;font-family:Montserrat;-inkscape-font-specification:'Montserrat Bold'"
         d="m 156.74809,45.494533 q 0,0.128 -0.128,1.792 h -17.36533 q 0.46933,2.133333 2.21866,3.370666 1.74934,1.237334 4.352,1.237334 1.792,0 3.15734,-0.512 1.408,-0.554667 2.60267,-1.706667 l 3.54133,3.84 q -3.24267,3.712 -9.472,3.712 -3.88267,0 -6.86934,-1.493333 -2.98666,-1.536 -4.608,-4.224 -1.62133,-2.688 -1.62133,-6.101334 0,-3.370666 1.57867,-6.058667 1.62133,-2.730666 4.39466,-4.224 2.816,-1.536 6.272,-1.536 3.37067,0 6.10134,1.450667 2.73067,1.450667 4.26667,4.181333 1.57866,2.688001 1.57866,6.272001 z m -11.904,-6.869334 q -2.26133,0 -3.79733,1.28 -1.536,1.28 -1.87734,3.498667 h 11.30667 q -0.34133,-2.176 -1.87733,-3.456 -1.536,-1.322667 -3.75467,-1.322667 z" />
      <path
         id="path5266"
         style="font-style:normal;font-variant:normal;font-weight:bold;font-stretch:normal;font-size:42.66666794px;font-family:Montserrat;-inkscape-font-specification:'Montserrat Bold'"
         d="m 174.74742,33.590532 q 3.2,0 5.80267,1.493334 2.64533,1.450666 4.13867,4.138666 1.49333,2.645334 1.49333,6.186667 0,3.541334 -1.49333,6.229334 -1.49334,2.645333 -4.13867,4.138667 -2.60267,1.450666 -5.80267,1.450666 -4.39466,0 -6.912,-2.773333 v 10.709334 h -6.656 V 33.931866 h 6.35734 v 2.645333 q 2.47466,-2.986667 7.21066,-2.986667 z m -1.152,18.176001 q 2.56,0 4.18134,-1.706667 1.664,-1.749333 1.664,-4.650667 0,-2.901333 -1.664,-4.608 -1.62134,-1.749333 -4.18134,-1.749333 -2.56,0 -4.224,1.749333 -1.62133,1.706667 -1.62133,4.608 0,2.901334 1.62133,4.650667 1.664,1.706667 4.224,1.706667 z" />
      <path
         id="path5268"
         style="font-style:normal;font-variant:normal;font-weight:bold;font-stretch:normal;font-size:42.66666794px;font-family:Montserrat;-inkscape-font-specification:'Montserrat Bold'"
         d="m 196.95343,36.961199 q 1.19466,-1.664 3.2,-2.517333 2.048,-0.853334 4.69333,-0.853334 v 6.144 q -1.10933,-0.08533 -1.49333,-0.08533 -2.85867,0 -4.48,1.621334 -1.62134,1.578666 -1.62134,4.778666 v 10.837334 h -6.656 V 33.931866 h 6.35734 z" />
      <path
         id="path5270"
         style="font-style:normal;font-variant:normal;font-weight:bold;font-stretch:normal;font-size:42.66666794px;font-family:Montserrat;-inkscape-font-specification:'Montserrat Bold'"
         d="m 208.84609,33.931866 h 6.656 v 22.954667 h -6.656 z m 3.328,-3.2 q -1.83466,0 -2.98666,-1.066667 -1.152,-1.066667 -1.152,-2.645334 0,-1.578666 1.152,-2.645333 1.152,-1.066667 2.98666,-1.066667 1.83467,0 2.98667,1.024 1.152,1.024 1.152,2.56 0,1.664 -1.152,2.773334 -1.152,1.066667 -2.98667,1.066667 z" />
      <path
         id="path5272"
         style="font-style:normal;font-variant:normal;font-weight:bold;font-stretch:normal;font-size:42.66666794px;font-family:Montserrat;-inkscape-font-specification:'Montserrat Bold'"
         d="m 244.46342,33.931866 -9.68533,22.954667 h -6.86933 l -9.64267,-22.954667 h 6.86933 l 6.35734,15.616 6.57066,-15.616 z" />
      <path
         id="path5274"
         style="font-style:normal;font-variant:normal;font-weight:bold;font-stretch:normal;font-size:42.66666794px;font-family:Montserrat;-inkscape-font-specification:'Montserrat Bold'"
         d="m 255.68809,33.590532 q 5.33333,0 8.192,2.56 2.85867,2.517334 2.85867,7.637334 v 13.098667 h -6.22934 v -2.858667 q -1.87733,3.2 -6.99733,3.2 -2.64533,0 -4.608,-0.896 -1.92,-0.896 -2.944,-2.474666 -1.024,-1.578667 -1.024,-3.584001 0,-3.2 2.38933,-5.034666 2.432,-1.834667 7.46667,-1.834667 h 5.29067 q 0,-2.176 -1.32267,-3.328 -1.32267,-1.194667 -3.968,-1.194667 -1.83467,0 -3.62667,0.597333 -1.74933,0.554667 -2.98666,1.536001 l -2.38934,-4.650667 q 1.87734,-1.322667 4.48,-2.048 2.64534,-0.725334 5.41867,-0.725334 z m -0.512,19.157334 q 1.70667,0 3.02933,-0.768 1.32267,-0.810667 1.87734,-2.346667 v -2.346666 h -4.56534 q -4.096,0 -4.096,2.688 0,1.28 0.98134,2.048 1.024,0.725333 2.77333,0.725333 z" />
      <path
         id="path5276"
         style="font-style:normal;font-variant:normal;font-weight:bold;font-stretch:normal;font-size:42.66666794px;font-family:Montserrat;-inkscape-font-specification:'Montserrat Bold'"
         d="m 284.1061,57.227866 q -3.66933,0 -6.61333,-1.493333 -2.90134,-1.536 -4.56534,-4.224 -1.62133,-2.688 -1.62133,-6.101334 0,-3.413333 1.62133,-6.101333 1.664,-2.688 4.56534,-4.181334 2.944,-1.536 6.61333,-1.536 3.62667,0 6.31467,1.536 2.73066,1.493334 3.968,4.309334 l -5.16267,2.773333 q -1.792,-3.157333 -5.16267,-3.157333 -2.60266,0 -4.30933,1.706667 -1.70667,1.706666 -1.70667,4.650666 0,2.944 1.70667,4.650667 1.70667,1.706667 4.30933,1.706667 3.41334,0 5.16267,-3.157334 l 5.16267,2.816 q -1.23734,2.730667 -3.968,4.266667 -2.688,1.536 -6.31467,1.536 z" />
      <path
         id="path5278"
         style="font-style:normal;font-variant:normal;font-weight:bold;font-stretch:normal;font-size:42.66666794px;font-family:Montserrat;-inkscape-font-specification:'Montserrat Bold'"
         d="m 320.71342,33.931866 -10.368,24.362667 q -1.57866,3.968 -3.92533,5.589334 -2.304,1.621333 -5.58933,1.621333 -1.792,0 -3.54134,-0.554667 -1.74933,-0.554666 -2.85866,-1.536 l 2.432,-4.736 q 0.768,0.682667 1.74933,1.066667 1.024,0.384 2.00533,0.384 1.36534,0 2.21867,-0.682667 0.85333,-0.64 1.536,-2.176 l 0.0853,-0.213333 -9.94133,-23.125334 h 6.86933 l 6.44267,15.573333 6.48533,-15.573333 z" />
      <path
         id="path5280"
         style="font-style:normal;font-variant:normal;font-weight:normal;font-stretch:normal;font-size:42.66666794px;font-family:Montserrat;-inkscape-font-specification:Montserrat"
         d="m 336.01609,34.273199 q 4.224,0 6.69867,2.474667 2.51733,2.432 2.51733,7.125333 v 13.013334 h -3.02933 V 44.171866 q 0,-3.498667 -1.74934,-5.333334 -1.74933,-1.834666 -4.992,-1.834666 -3.62666,0 -5.76,2.176 -2.09066,2.133333 -2.09066,5.930667 v 11.776 h -3.02934 V 34.443866 h 2.90134 v 4.138666 q 1.23733,-2.048 3.41333,-3.157333 2.21867,-1.152 5.12,-1.152 z" />
      <path
         id="path5282"
         style="font-style:normal;font-variant:normal;font-weight:normal;font-stretch:normal;font-size:42.66666794px;font-family:Montserrat;-inkscape-font-specification:Montserrat"
         d="m 373.12276,46.603866 h -18.77334 q 0.256,3.498667 2.688,5.674667 2.432,2.133333 6.144,2.133333 2.09067,0 3.84,-0.725333 1.74934,-0.768 3.02934,-2.218667 l 1.70666,1.962667 q -1.49333,1.792 -3.75466,2.730667 -2.21867,0.938666 -4.90667,0.938666 -3.456,0 -6.144,-1.450666 -2.64533,-1.493334 -4.13867,-4.096001 -1.49333,-2.602666 -1.49333,-5.888 0,-3.285333 1.408,-5.888 1.45067,-2.602667 3.92533,-4.053333 2.51734,-1.450667 5.632,-1.450667 3.11467,0 5.58934,1.450667 2.47466,1.450666 3.88266,4.053333 1.408,2.56 1.408,5.888 z m -10.83734,-9.728 q -3.24266,0 -5.46133,2.090666 -2.176,2.048001 -2.47467,5.376001 h 15.91467 q -0.29867,-3.328 -2.51733,-5.376001 -2.176,-2.090666 -5.46134,-2.090666 z" />
      <path
         id="path5284"
         style="font-style:normal;font-variant:normal;font-weight:normal;font-stretch:normal;font-size:42.66666794px;font-family:Montserrat;-inkscape-font-specification:Montserrat"
         d="m 391.15009,55.5212 q -0.85333,0.768 -2.13333,1.194666 -1.23734,0.384 -2.60267,0.384 -3.15733,0 -4.864,-1.706666 -1.70667,-1.706667 -1.70667,-4.821334 v -13.568 h -4.01066 v -2.56 h 4.01066 v -4.906667 h 3.02934 v 4.906667 h 6.82666 v 2.56 h -6.82666 v 13.397333 q 0,2.005334 0.98133,3.072001 1.024,1.024 2.90133,1.024 0.93867,0 1.792,-0.298667 0.896,-0.298667 1.536,-0.853333 z" />
    </g>
  </g>
</svg>
